<svg width="35" height="80" version="1.1" viewBox="0 0 35 80" xmlns="http://www.w3.org/2000/svg">
 <path d="m12.043 74.699c0.85542-1.6571 1.2474-4.0347 1.6044-4.9314 0.30001-0.7534 1.6381-0.55523 2.0078-0.82608 1.2245-0.89708 1.6235-2.0452 1.2164-3.5-0.30276-1.0818-0.32408-1.7288-0.12101-1.8154 0 0 0.26378 0.70435 0.5806 1.1504 0.21232 0.29891 0.39011 0.52981 0.5464 0.69569l0.52692-0.14515c0.53375-0.14703 0.53846 0.12872 0.53846 0.12872 0.06781-0.21556 0.33102-0.39015 0.54048-0.67926 0.31096-0.4292 0.33535-1.0482 0.46566-1.1224 0.23747-0.13523 0.38415 0.70279 0.126 1.8799-0.31037 1.4152 0.13554 2.7211 1.1952 3.5 0.37525 0.27585 1.8042 0.51955 2.2919 1.2619 0.72054 1.0968 0.52063 2.8921 1.0684 4.3132 0.6483 1.6818 1.8361 2.8434 1.8956 3.3358 0.06568 0.54319-0.63589 0.0927-1.6843-0.21389-1.0008-0.29266-1.8912-2.4205-2.575-3.8472-0.27718-0.57832-0.72839-1.419-1.061-1.8727-0.48757-0.66506-0.99356-0.78636-1.3973-0.78744 0 0-0.38606 0.60053-0.98063 0.84704-0.48782 0.20225-1.1988-0.9324-1.5682-0.76376-0.45168 0.2062-1.1611 0.51416-1.4569 0.75534-0.53105 0.433-0.78814 1.1108-1.1491 1.8639-0.24418 0.50946-0.3486 1.0904-0.68542 1.612-0.60645 0.93918-1.4415 1.8486-2.0167 2.1928-0.853 0.51047-1.4443 1.1348-1.1637 0.09643 0.15442-0.57136 0.63785-1.9328 1.2551-3.1284zm-2.3734-22.922c0.71633-0.53547 1.0878-1.4885 2.0029-1.8558 1.0019-0.34412 2.2118-0.31873 3.0383-0.14418 2.0706 0 2.4989-0.19474 2.0903-2.0593-0.08868-0.40464-0.02487-0.83229-0.1024-1.0746-0.26066-0.81468-0.07151-0.80851 0.61127 0.13391 0.147 0.2029 0.23229 0.61463 0.35084 0.75578 0.26308 0.31322 0 0 0.69413-0.18058 0.22304-0.05802 0.64197 0.19729 0.81222 0.28842 0.19977 0.10694 0.26892-0.59712 0.45114-0.84863 0.70163-0.96843 0.74461-0.91138 0.5644 0.0097-0.04536 0.23184-0.02548 0.35966-0.10561 0.72528-0.40866 1.8646-0.06511 2.25 2.0055 2.25 1.3743 0 3.6428 0.9 5.0412 2 0.94161 0.81379 6.4205 1.8752 2.5426 2h-2.4682c-1.3575 0-2.3085-0.05214-2.6829-0.4266-0.23903-0.23903-1.2066-1.0764-2.0441-1.1871-0.78196-0.02452-1.4866 0.44226-2.3592 0.88901-2.0982 1.1605-2.8649-0.94851-6.1388-0.69231-0.6108 0.12642-1.1078 0.5817-1.2133 0.7524-0.25646 0.415-1.6404 0.66462-3.0571 0.66462-0.86292 0.06616-2.1961 0.08476-2.5758 0-0.027397-0.33973 0.80391-0.81211 1.3287-1.097 0.5366-0.29132 0.772-0.57265 1.2139-0.90299zm5.7271-19c-1.375-1.0755-3.5125-1.9655-4.75-1.9778-1.2375-0.01223-2.3698 0.12701-2.3698-0.42299s-1.0317-1.5992-2.4392-1.5992c-1.1022 0-2.7807 0.07995-2.9241-0.28857 1.8008-2.4293 8.3558-2.4135 11.042-0.24323 2.419 1.8296 3.529 1.9243 2.885 0.24609-0.1349-0.35154-0.27067-1.5137-0.0693-1.731 0.12926-0.13946 0.3367 0.96601 0.69013 1.0249 0.33313 0.0555 0.08002-0.20072 0.96528-0.30996 0.27852-0.03437 0.55503 0.32039 0.85182 0.12975 0.2828-0.18166 0.56149-1.1466 0.69724-1.0631 0.36099 0.22217 0.1483 1.5033-0.02288 1.9494-0.644 1.6782 0.46599 1.5835 2.885-0.24609 4.0541-2.2158 8.5417-1.8748 10.672 0.1172-0.37127 0.1265-1.4761 0.4146-2.5544 0.4146-1.4075 0-2.7987 1.0193-2.7987 1.5693s-0.7728 0.44072-2.0103 0.45296-3.375 0.90222-4.75 1.9778-2.8149 2.1353-3.0899 2.1353-1.5351-1.0598-2.9101-2.1353zm-1.2917-20.498c-0.9961-0.93955-2.503-1.6581-3.171-2.6478-0.69979-1.0368-0.53734-2.3361-0.53734-2.918 0-1.1374-0.50644-3.0508-1.1254-4.2522-0.29531-0.57315-0.74403-1.2456-0.60984-1.2897 0.23024-0.07557 1.4776 1 3.1098 2.5516 1.223 1.1625 2.3695 1.6271 3.027 2.573 0.41448 0.59631 0.59848 1.8533 0.59848 2.118 0 0.68465 0.51953 1.5659 1.1545 1.9583 0.67029 0.41426 0.88472 0.27699 0.51125-0.32729-0.23422-0.37897-0.3635-2.7352-0.07864-2.2081 0.04918 0.09102 0.34935 0.59884 0.63725 0.71525 0.27263 0.11024 0.52496-0.17075 0.86588-0.08872 0.28325 0.06815 0.63189 0.22777 0.89357 0.04581 0.38613-0.26849 0.65345-0.92796 0.81737-0.84526 0.33059 0.16679 0.01625 1.1462-0.1908 1.6858-0.30119 0.78487-0.11173 1.427 0.42101 1.427s0.96862-0.50309 0.96862-1.118c0-0.35079-0.20157-1.6343 0.46766-2.5992 0.50163-0.72327 0.71238-0.74472 1.8929-2.2152 1.8267-1.6987 3.3639-3.0524 5.5245-4.1685 0.50023 0.42649-2.3114 2.9099-2.6102 4.7943-0.46843 0.85163 0.05535 2.8469-0.58079 3.7759-0.41705 0.60904-1.6083 0.25942-2.0722 0.87744-0.5595 0.74528-0.73709 1.5959-1.4851 2.3015-0.36892 0.34797-0.28509 0.50423-0.78746 1.0302-0.11476 0.12015-0.50979 0.23004-0.64287 0.31848-2.0174 1.3408-2.5866 2.2756-2.8263 2.3027-0.3014 0.034-0.49278-1.1269-1.5491-1.7996-0.48513-0.30895-1.4568-0.18253-1.9654-0.64185-0.34041-0.30742-0.3025-1.0213-0.65738-1.356z"/>
</svg>
