<svg enable-background="new 0 0 864 864" version="1.1" viewBox="0 0 864 864" xml:space="preserve" xmlns="http://www.w3.org/2000/svg">
<path d="m773.51 367.43c-13.839-200.35-199.72-205.6-199.72-205.6-42.542-21.66-81.858-32.546-116.92-36.682-7.8449-24.908-5.9355-54.916 29.568-79.118 0 0-11.794-42.976-55.756-22.511 0 0-0.118 9.0187-1.3112 22.698l-0.8751 8.939c-1.9037 17.521-8.5733 45.866-15.906 68.128-79.998 2.7996-128.77 38.489-128.77 38.489-181.77 20.115-201.83 178.93-192.24 297.3 6.2059 76.586 59.026 132.75 151.59 164.68 3.9599 21.258 4.397 47.708-5.615 83.167-23.19 82.132 29.954 57.975 31.887 0 1.9324-57.975 55.414-60.376 60.56-33.27 5.1457 27.106-5.4833 58.392-27.707 104.77-22.224 46.38 31.886 91.881 56.043 52.704s-8.8451-77.899-2.98-108.73c5.8649-30.829 14.879-58.962 37.917-56.063 23.038 2.8986-7.7185 47.347 19.255 68.604 26.974 21.258 41.806 14.288 39.221-19.911s28.335-16.806 39.93-24.537c11.595-7.7301 20.654-21.258 9.844-38.65-1e-3 -0.0016-0.0016-0.0032-0.0026-0.0045 12.743-1.1589 25.186-2.7563 37.291-4.8041 1.83 12.904-0.05 32.259-22.01 59.885-29.954 37.684-27.132 100.33 11.556 97.993 38.689-2.3337 29.027-86.398 27.094-120.22-1.9326-33.819 18.743-38.671 26.089-30.576 7.3456 8.0948 23.19 18.981 10.629 69.226s1.9324 108.22 45.414 93.727c43.481-14.494-0.9664-103.39-13.528-139.14-5.493-15.634-10.062-33.671-10.879-50.796 105.26-40.29 169.57-126.06 160.34-259.71zm-257.2-143.51 65.483 143.49c-36.064-12.584-68.843-6.5896-99.101 13.656l33.618-157.15zm-149.01-8.52 30.334 174.19c-40.667-19.545-81.334-27.628-122-24.25l91.666-149.94zm131.32 347.03-11.89-29.11-35.395 9.345 7.215 26.932s-30.187 10.466-91.614-4.2622l8.9154-33.207-34.575-5.9612-0.3263 31.734s-103.43-31.138-144.85-158.11v-3.8793s68.387 46.055 88.896 50.302l-13.002 26.471 31.561 15.188 14.322-29.734s36.9 14.55 77.644 15.026v44.978h27.54v-44.043s26.897 3.2206 52.434-4.545l8.6049 39.486 28.31-6.1398-8.0643-38.161s15.104-0.5059 29.144-6.4974l16.291 30.445 31.216-18.283-11.404-22.145s76.683-20.885 109.87-44.81c2e-4 -3e-4 -49.14 136.23-180.85 158.98z" fill="#E45B0A"/>
</svg>
